<?xml version="1.0" encoding="utf-8"?>
<!-- Generator: Adobe Illustrator 27.5.0, SVG Export Plug-In . SVG Version: 6.00 Build 0)  -->
<svg version="1.1" xmlns="http://www.w3.org/2000/svg" xmlns:xlink="http://www.w3.org/1999/xlink" x="0px" y="0px"
	 viewBox="0 0 500 500" style="enable-background:new 0 0 500 500;" xml:space="preserve">
<g id="BACKGROUND">
	<rect style="fill:#FFFFFF;" width="500" height="500"/>
	<g>
		<g>
			<g style="opacity:0.41;">
				<g>
					<g>
						<path style="fill:#E1E2FE;" d="M492.721,292.975c0.456-7.842,0.252-15.72-0.632-23.521
							c-4.153-36.653-22.957-71.216-50.633-95.602c-9.874-8.7-21.109-16.494-27.535-27.979
							c-10.822-19.34-10.002-41.568-23.432-60.664c-13.446-19.118-33.041-34.028-55.138-41.684
							c-65.886-22.83-158.129,14.342-149.824,93.724c0.03,0.285,0.062,0.699,0.097,1.223c1.104,16.489-11.837,30.353-28.309,30.744
							C96.527,170.659,44.2,217.527,33.004,276.895c-7.2,38.18,4.59,80.029,32.519,107.038
							c20.848,20.161,48.819,31.237,76.805,38.848c56.111,15.26,115.158,18.458,173.014,12.624
							c54.157-5.462,111.283-21.031,146.307-62.697C480.333,350.481,491.037,321.978,492.721,292.975z"/>
					</g>
				</g>
			</g>
			<g style="opacity:0.41;">
				<g>
					<g>
						<path style="fill:#E1E2FE;" d="M445.23,300.297c0.339-5.839,0.187-11.705-0.471-17.513
							c-3.092-27.29-17.092-53.024-37.699-71.181c-7.352-6.478-15.716-12.281-20.501-20.832c-8.057-14.4-7.447-30.949-17.447-45.167
							c-10.012-14.235-24.601-25.335-41.053-31.036c-49.056-16.998-117.736,10.679-111.552,69.783
							c0.022,0.212,0.046,0.52,0.072,0.91c0.822,12.277-8.814,22.599-21.077,22.89c-45.261,1.074-84.221,35.97-92.557,80.173
							c-5.361,28.427,3.417,59.585,24.212,79.696c15.522,15.011,36.349,23.258,57.185,28.925
							c41.778,11.362,85.742,13.743,128.819,9.399c40.323-4.067,82.856-15.659,108.934-46.681
							C436.007,343.113,443.976,321.892,445.23,300.297z"/>
					</g>
				</g>
			</g>
			<g style="opacity:0.31;">
				
					<ellipse transform="matrix(0.7071 -0.7071 0.7071 0.7071 62.3339 357.2049)" style="fill:#E1E2FE;" cx="462.351" cy="103.359" rx="19.727" ry="19.727"/>
			</g>
			<g style="opacity:0.31;">
				<path style="fill:#E1E2FE;" d="M434.52,76.773c0,3.788-3.071,6.859-6.859,6.859c-3.788,0-6.859-3.071-6.859-6.859
					c0-3.788,3.071-6.859,6.859-6.859C431.449,69.914,434.52,72.985,434.52,76.773z"/>
			</g>
			<g style="opacity:0.31;">
				
					<ellipse transform="matrix(0.6639 -0.7478 0.7478 0.6639 -6.6219 142.0017)" style="fill:#E1E2FE;" cx="154.659" cy="78.367" rx="9.191" ry="9.191"/>
			</g>
			<g style="opacity:0.31;">
				<circle style="fill:#E1E2FE;" cx="89.395" cy="446.047" r="20.927"/>
			</g>
		</g>
	</g>
	<g>
		<g>
			<path style="opacity:0.47;fill:#ECF1F7;" d="M404.737,34.611c-5.282,3.969-6.347,11.468-2.378,16.75
				c3.969,5.282,14.226,10.017,19.508,6.048c5.282-3.969-0.651-12.458-1.575-19C419.004,29.284,410.019,30.642,404.737,34.611z"/>
			<path style="opacity:0.47;fill:#E1E2FE;" d="M109.659,70.971c-7.081-10.026-20.948-12.414-30.974-5.333
				c-10.026,7.081-19.38,25.868-12.299,35.894c7.081,10.026,23.17-0.527,35.369-1.883C118.769,97.757,116.74,80.997,109.659,70.971z
				"/>
		</g>
		<g>
			<path style="opacity:0.47;fill:#E1E2FE;" d="M472.575,358.328c6.259-9.954,7.828-22.304,6.525-33.99
				c-1.295-11.612-4.853-23.796-9.822-34.357c-4.71-10.009-11.527-18.938-13.47-30.087c-2.567-14.73,4.156-28.889,5.717-43.338
				c3.107-28.765-16.332-54.11-40.448-67.796c-19.587-11.116-42.55-15.287-65.069-14.99c-20.268,0.267-40.5,3.863-60.14,8.698
				c-18.927,4.659-37.432,10.799-57.271,8.862c-16.5-1.611-31.36-8.464-46.726-13.574c-36.685-12.2-81.124-13.921-114.67,4.652
				c-21.529,11.92-36.598,31.277-43.281,52.089c-4.895,15.244-6.347,32.772-2.76,48.199c4.031,17.335,11.478,32.605,9.512,50.865
				c-1.614,14.984-7.118,29.592-6.632,44.792c0.418,13.064,14.637,31.839,29.313,36.695c0.799,0.264-0.589,1.355,0,1.953h387.831
				C459.613,372.457,467.48,366.431,472.575,358.328z"/>
			<g>
				<path style="opacity:0.81;fill:#E1E2FE;" d="M474.529,313.941c-4.588-28.941-35.214-32.866-28.572-51.518
					c8.411-23.619,8.007-50.085-2.207-73.1c-4.923-11.092-12.114-21.4-21.934-28.529c-15.139-10.99-34.975-13.4-53.63-12.006
					c-27.764,2.075-57.06,13.622-84.975,10.473c-15.404-1.738-20.108-17.756-28.064-28.322
					c-8.998-11.95-21.252-21.337-34.799-27.585c-24.952-11.508-54.898-12.597-80.4-2.162c-27.227,11.14-50.958,38.346-49.398,69.114
					c0.722,14.234,6.652,28.371,3.907,42.357c-3.446,17.552-17.211,33.546-27.186,47.847
					c-11.016,15.794-17.685,34.628-18.993,53.843C46.795,336.14,52.222,358.34,63.56,377h394.315
					C462.923,368.211,481.566,358.328,474.529,313.941z"/>
			</g>
		</g>
	</g>
	<circle style="opacity:0.58;fill:#3E479B;" cx="434.52" cy="459.435" r="4.5"/>
	<circle style="fill:#F7A9B4;" cx="396.917" cy="446.047" r="3.5"/>
	<circle style="fill:#F7A9B4;" cx="139.587" cy="449.547" r="3.5"/>
	<circle style="fill:#F7A9B4;" cx="445.405" cy="419.471" r="3.5"/>
	<circle style="fill:#F7A9B4;" cx="452.89" cy="45.882" r="3.5"/>
	<circle style="opacity:0.58;fill:#EF929C;" cx="69.604" cy="41.382" r="4.5"/>
	<circle style="opacity:0.58;fill:#3E479B;" cx="121.291" cy="36.882" r="3.5"/>
	<circle style="opacity:0.58;fill:#3E479B;" cx="48.038" cy="411.878" r="3.5"/>
	<circle style="opacity:0.58;fill:#3E479B;" cx="-41.5" cy="129.5" r="1.5"/>
	<path style="opacity:0.58;fill:#EF929C;" d="M330.459,62.217c-0.623,2.919-3.495,4.779-6.413,4.156
		c-2.919-0.623-4.779-3.495-4.156-6.413c0.623-2.919,3.495-4.779,6.413-4.156C329.221,56.427,331.082,59.298,330.459,62.217z"/>
	<path style="opacity:0.58;fill:#3E479B;" d="M287.361,80.027c-0.208,0.973-1.165,1.593-2.138,1.385
		c-0.973-0.208-1.593-1.165-1.385-2.138s1.165-1.593,2.138-1.385C286.949,78.097,287.569,79.054,287.361,80.027z"/>
</g>
<g id="OBJECTS">
	<g>
		<g>
			<path style="fill:#FFFFFF;" d="M270.337,178h-80.911c-8.869,0-16.059-7.19-16.059-16.059v-88.3
				c0-8.869,7.19-16.059,16.059-16.059h80.911c8.869,0,16.059,7.19,16.059,16.059v88.3C286.396,170.81,279.206,178,270.337,178z"/>
			<path style="opacity:0.39;fill:#F7A9B4;" d="M270.337,178h-80.911c-8.869,0-16.059-7.19-16.059-16.059v-88.3
				c0-8.869,7.19-16.059,16.059-16.059h80.911c8.869,0,16.059,7.19,16.059,16.059v88.3C286.396,170.81,279.206,178,270.337,178z"/>
			<g>
				<path style="fill:#F7A9B4;" d="M260.583,57.611v-0.029h-90.784c-10.449,0-18.92,8.471-18.92,18.92v7.187h91.811v-7.187
					C242.69,66.397,250.612,58.144,260.583,57.611z"/>
			</g>
			<path style="fill:#FFFFFF;" d="M257.117,97.5H195c-0.552,0-1-0.448-1-1s0.448-1,1-1h62.117c0.553,0,1,0.448,1,1
				S257.67,97.5,257.117,97.5z"/>
			<path style="fill:#FFFFFF;" d="M257.117,123.654H195c-0.552,0-1-0.448-1-1s0.448-1,1-1h62.117c0.553,0,1,0.448,1,1
				S257.67,123.654,257.117,123.654z"/>
			<path style="fill:#FFFFFF;" d="M228,110.588h-33c-0.552,0-1-0.448-1-1c0-0.552,0.448-1,1-1h33c0.552,0,1,0.448,1,1
				C229,110.141,228.552,110.588,228,110.588z"/>
			<path style="fill:#FFFFFF;" d="M264,110.588h-28c-0.552,0-1-0.448-1-1c0-0.552,0.448-1,1-1h28c0.553,0,1,0.448,1,1
				C265,110.141,264.553,110.588,264,110.588z"/>
		</g>
		<g>
			<g style="opacity:0.81;">
				<path style="fill:#FFFFFF;" d="M254.054,347.191h-23.088c-0.552,0-1-0.447-1-1s0.448-1,1-1h23.088c0.553,0,1,0.447,1,1
					S254.606,347.191,254.054,347.191z"/>
				<path style="fill:#FFFFFF;" d="M254.054,371.191h-23.088c-0.552,0-1-0.447-1-1s0.448-1,1-1h23.088c0.553,0,1,0.447,1,1
					S254.606,371.191,254.054,371.191z"/>
				<g>
					<g>
						<g>
							<path style="fill:#FFFFFF;" d="M271.694,395.429H128.677c-1.495,0-2.711-1.217-2.711-2.712v-74.434
								c0-1.495,1.216-2.712,2.711-2.712h143.018c1.495,0,2.712,1.217,2.712,2.712v74.434
								C274.406,394.212,273.189,395.429,271.694,395.429z M128.677,317.571c-0.392,0-0.711,0.319-0.711,0.712v74.434
								c0,0.393,0.319,0.712,0.711,0.712h143.018c0.393,0,0.712-0.319,0.712-0.712v-74.434c0-0.393-0.319-0.712-0.712-0.712H128.677
								z"/>
							<path style="opacity:0.66;fill:#FFFFFF;" d="M271.694,395.429H128.677c-1.495,0-2.711-1.217-2.711-2.712v-74.434
								c0-1.495,1.216-2.712,2.711-2.712h143.018c1.495,0,2.712,1.217,2.712,2.712v74.434
								C274.406,394.212,273.189,395.429,271.694,395.429z M128.677,317.571c-0.392,0-0.711,0.319-0.711,0.712v74.434
								c0,0.393,0.319,0.712,0.711,0.712h143.018c0.393,0,0.712-0.319,0.712-0.712v-74.434c0-0.393-0.319-0.712-0.712-0.712H128.677
								z"/>
						</g>
					</g>
					<g>
						<path style="fill:#FFFFFF;" d="M143.537,380.31h36.211c0.682,0,1.235-0.553,1.235-1.235v-48.98
							c0-0.682-0.553-1.235-1.235-1.235h-36.211c-0.682,0-1.234,0.553-1.234,1.235v48.98
							C142.302,379.757,142.855,380.31,143.537,380.31z"/>
					</g>
					<path style="fill:#FFFFFF;" d="M254.054,335.545h-63.501c-0.552,0-1-0.447-1-1c0-0.553,0.448-1,1-1h63.501c0.553,0,1,0.447,1,1
						C255.054,335.098,254.606,335.545,254.054,335.545z"/>
					<path style="fill:#FFFFFF;" d="M254.054,358.839h-63.501c-0.552,0-1-0.447-1-1c0-0.553,0.448-1,1-1h63.501c0.553,0,1,0.447,1,1
						C255.054,358.392,254.606,358.839,254.054,358.839z"/>
					<path style="fill:#FFFFFF;" d="M224.789,347.191h-34.235c-0.552,0-1-0.447-1-1s0.448-1,1-1h34.235c0.552,0,1,0.447,1,1
						S225.341,347.191,224.789,347.191z"/>
					<path style="fill:#FFFFFF;" d="M224.789,371.191h-34.235c-0.552,0-1-0.447-1-1s0.448-1,1-1h34.235c0.552,0,1,0.447,1,1
						S225.341,371.191,224.789,371.191z"/>
					<path style="fill:#FFFFFF;" d="M213.642,382.31h-23.088c-0.552,0-1-0.447-1-1c0-0.553,0.448-1,1-1h23.088c0.552,0,1,0.447,1,1
						C214.642,381.862,214.194,382.31,213.642,382.31z"/>
				</g>
			</g>
			<g style="opacity:0.81;">
				<path style="fill:#FFFFFF;" d="M452.89,219.11h-23.088c-0.553,0-1-0.448-1-1c0-0.552,0.447-1,1-1h23.088c0.553,0,1,0.448,1,1
					C453.89,218.662,453.442,219.11,452.89,219.11z"/>
				<path style="fill:#FFFFFF;" d="M452.89,243.11h-23.088c-0.553,0-1-0.448-1-1c0-0.552,0.447-1,1-1h23.088c0.553,0,1,0.448,1,1
					C453.89,242.662,453.442,243.11,452.89,243.11z"/>
				<g>
					<g>
						<g>
							<path style="fill:#FFFFFF;" d="M470.531,267.347H327.514c-1.495,0-2.712-1.217-2.712-2.712v-74.434
								c0-1.495,1.217-2.712,2.712-2.712h143.018c1.495,0,2.711,1.216,2.711,2.712v74.434
								C473.242,266.13,472.026,267.347,470.531,267.347z M327.514,189.49c-0.393,0-0.712,0.319-0.712,0.712v74.434
								c0,0.393,0.319,0.712,0.712,0.712h143.018c0.392,0,0.711-0.319,0.711-0.712v-74.434c0-0.392-0.319-0.712-0.711-0.712H327.514
								z"/>
							<path style="opacity:0.66;fill:#FFFFFF;" d="M470.531,267.347H327.514c-1.495,0-2.712-1.217-2.712-2.712v-74.434
								c0-1.495,1.217-2.712,2.712-2.712h143.018c1.495,0,2.711,1.216,2.711,2.712v74.434
								C473.242,266.13,472.026,267.347,470.531,267.347z M327.514,189.49c-0.393,0-0.712,0.319-0.712,0.712v74.434
								c0,0.393,0.319,0.712,0.712,0.712h143.018c0.392,0,0.711-0.319,0.711-0.712v-74.434c0-0.392-0.319-0.712-0.711-0.712H327.514
								z"/>
						</g>
					</g>
					<g>
						<path style="fill:#FFFFFF;" d="M342.373,252.227h36.211c0.682,0,1.235-0.553,1.235-1.234v-48.98
							c0-0.682-0.553-1.234-1.235-1.234h-36.211c-0.682,0-1.235,0.553-1.235,1.234v48.98
							C341.139,251.675,341.692,252.227,342.373,252.227z"/>
					</g>
					<path style="fill:#FFFFFF;" d="M452.89,207.462h-63.5c-0.553,0-1-0.448-1-1s0.447-1,1-1h63.5c0.553,0,1,0.448,1,1
						S453.442,207.462,452.89,207.462z"/>
					<path style="fill:#FFFFFF;" d="M452.89,230.757h-63.5c-0.553,0-1-0.448-1-1c0-0.552,0.447-1,1-1h63.5c0.553,0,1,0.448,1,1
						C453.89,230.309,453.442,230.757,452.89,230.757z"/>
					<path style="fill:#FFFFFF;" d="M423.625,219.11H389.39c-0.553,0-1-0.448-1-1c0-0.552,0.447-1,1-1h34.235c0.553,0,1,0.448,1,1
						C424.625,218.662,424.178,219.11,423.625,219.11z"/>
					<path style="fill:#FFFFFF;" d="M423.625,243.11H389.39c-0.553,0-1-0.448-1-1c0-0.552,0.447-1,1-1h34.235c0.553,0,1,0.448,1,1
						C424.625,242.662,424.178,243.11,423.625,243.11z"/>
					<path style="fill:#FFFFFF;" d="M412.478,254.227H389.39c-0.553,0-1-0.447-1-1c0-0.553,0.447-1,1-1h23.089c0.553,0,1,0.447,1,1
						C413.478,253.78,413.031,254.227,412.478,254.227z"/>
				</g>
			</g>
			<g>
				<path style="fill:#F7A9B4;" d="M412.165,319.844h-84.242c-1.841,0-3.333-1.492-3.333-3.333v-30.478
					c0-1.841,1.492-3.333,3.333-3.333h84.242c1.841,0,3.333,1.492,3.333,3.333v30.478
					C415.498,318.352,414.005,319.844,412.165,319.844z"/>
				<g>
					<g>
						<g>
							<path style="fill:#FFFFFF;" d="M346.806,311.992h92.389c2.791,0,5.075,2.284,5.075,5.075v28.302
								c0,2.791-2.284,5.075-5.075,5.075h-92.389c-2.791,0-5.075-2.284-5.075-5.075v-28.302
								C341.731,314.275,344.015,311.992,346.806,311.992z"/>
							<path style="opacity:0.74;fill:#6D6CD4;" d="M346.806,311.992h92.389c2.791,0,5.075,2.284,5.075,5.075v28.302
								c0,2.791-2.284,5.075-5.075,5.075h-92.389c-2.791,0-5.075-2.284-5.075-5.075v-28.302
								C341.731,314.275,344.015,311.992,346.806,311.992z"/>
						</g>
						<g>
							<g>
								<path style="fill:#FFFFFF;" d="M411.721,335.66c-2.423,0-4.394-1.971-4.394-4.394c0-2.423,1.971-4.394,4.394-4.394
									c2.423,0,4.394,1.971,4.394,4.394C416.114,333.69,414.144,335.66,411.721,335.66z M411.721,327.873
									c-1.871,0-3.394,1.523-3.394,3.394s1.522,3.394,3.394,3.394c1.871,0,3.394-1.522,3.394-3.394
									S413.592,327.873,411.721,327.873z"/>
								<path style="fill:#FFFFFF;" d="M393.343,335.66c-2.423,0-4.394-1.971-4.394-4.394c0-2.423,1.971-4.394,4.394-4.394
									c2.423,0,4.394,1.971,4.394,4.394C397.736,333.69,395.766,335.66,393.343,335.66z M393.343,327.873
									c-1.871,0-3.394,1.523-3.394,3.394s1.522,3.394,3.394,3.394c1.871,0,3.394-1.522,3.394-3.394
									S395.214,327.873,393.343,327.873z"/>
								<path style="fill:#FFFFFF;" d="M376.211,335.66c-2.423,0-4.393-1.971-4.393-4.394c0-2.423,1.971-4.394,4.393-4.394
									c2.423,0,4.394,1.971,4.394,4.394C380.604,333.69,378.634,335.66,376.211,335.66z M376.211,327.873
									c-1.871,0-3.393,1.523-3.393,3.394s1.522,3.394,3.393,3.394c1.871,0,3.394-1.522,3.394-3.394
									S378.082,327.873,376.211,327.873z"/>
							</g>
						</g>
					</g>
				</g>
			</g>
			<g>
				<path style="fill:#FFFFFF;" d="M85.338,228.099h-1c-0.276,0-0.5-0.224-0.5-0.5c0-0.276,0.224-0.5,0.5-0.5h1
					c0.276,0,0.5,0.224,0.5,0.5C85.838,227.875,85.615,228.099,85.338,228.099z"/>
				<path style="fill:#FFFFFF;" d="M372.804,392.981h-1.98c-0.276,0-0.5-0.224-0.5-0.5c0-0.276,0.224-0.5,0.5-0.5h1.98
					c0.276,0,0.5,0.224,0.5,0.5C373.304,392.758,373.08,392.981,372.804,392.981z M351.02,392.981h-1.98c-0.276,0-0.5-0.224-0.5-0.5
					c0-0.276,0.224-0.5,0.5-0.5h1.98c0.276,0,0.5,0.224,0.5,0.5C351.52,392.758,351.297,392.981,351.02,392.981z M329.236,392.981
					h-1.98c-0.276,0-0.5-0.224-0.5-0.5c0-0.276,0.224-0.5,0.5-0.5h1.98c0.276,0,0.5,0.224,0.5,0.5
					C329.736,392.758,329.513,392.981,329.236,392.981z M307.453,392.981h-1.98c-0.276,0-0.5-0.224-0.5-0.5
					c0-0.276,0.224-0.5,0.5-0.5h1.98c0.276,0,0.5,0.224,0.5,0.5C307.953,392.758,307.729,392.981,307.453,392.981z M285.67,392.981
					h-1.98c-0.276,0-0.5-0.224-0.5-0.5c0-0.276,0.224-0.5,0.5-0.5h1.98c0.276,0,0.5,0.224,0.5,0.5
					C286.17,392.758,285.946,392.981,285.67,392.981z M263.887,392.981h-1.98c-0.276,0-0.5-0.224-0.5-0.5c0-0.276,0.224-0.5,0.5-0.5
					h1.98c0.276,0,0.5,0.224,0.5,0.5C264.387,392.758,264.163,392.981,263.887,392.981z M242.103,392.981h-1.98
					c-0.276,0-0.5-0.224-0.5-0.5c0-0.276,0.224-0.5,0.5-0.5h1.98c0.276,0,0.5,0.224,0.5,0.5
					C242.603,392.758,242.379,392.981,242.103,392.981z M220.319,392.981h-1.98c-0.276,0-0.5-0.224-0.5-0.5
					c0-0.276,0.224-0.5,0.5-0.5h1.98c0.276,0,0.5,0.224,0.5,0.5C220.819,392.758,220.596,392.981,220.319,392.981z M198.536,392.981
					h-0.604c-0.479,0-0.952-0.022-1.42-0.065c-0.275-0.025-0.477-0.269-0.452-0.544c0.026-0.275,0.258-0.468,0.544-0.452
					c0.437,0.041,0.88,0.062,1.328,0.062h0.604c0.276,0,0.5,0.224,0.5,0.5C199.036,392.758,198.813,392.981,198.536,392.981z
					 M388.164,382.88c-0.053,0-0.105-0.008-0.158-0.025c-0.262-0.088-0.403-0.371-0.316-0.633c0.201-0.602,0.363-1.225,0.481-1.85
					c0.052-0.272,0.315-0.45,0.584-0.398c0.272,0.052,0.45,0.314,0.398,0.584c-0.127,0.67-0.3,1.336-0.515,1.98
					C388.568,382.747,388.373,382.88,388.164,382.88z M183.295,380.237c-0.246,0-0.46-0.182-0.495-0.433
					c-0.092-0.672-0.14-1.358-0.142-2.039c-0.001-0.276,0.222-0.501,0.498-0.502c0.001,0,0.001,0,0.002,0
					c0.275,0,0.499,0.223,0.5,0.498c0.002,0.637,0.047,1.279,0.133,1.908c0.037,0.273-0.154,0.525-0.428,0.563
					C183.341,380.236,183.318,380.237,183.295,380.237z M183.086,358.463c-0.254,0-0.472-0.192-0.497-0.451
					c-0.063-0.633-0.168-1.268-0.314-1.885c-0.064-0.269,0.103-0.538,0.371-0.602c0.27-0.068,0.539,0.103,0.602,0.371
					c0.157,0.661,0.27,1.34,0.336,2.018c0.027,0.274-0.174,0.52-0.449,0.547C183.119,358.462,183.102,358.463,183.086,358.463z
					 M168.35,345.153h-1.98c-0.276,0-0.5-0.224-0.5-0.5c0-0.276,0.224-0.5,0.5-0.5h1.98c0.276,0,0.5,0.224,0.5,0.5
					C168.85,344.93,168.626,345.153,168.35,345.153z M146.566,345.153h-1.98c-0.276,0-0.5-0.224-0.5-0.5c0-0.276,0.224-0.5,0.5-0.5
					h1.98c0.276,0,0.5,0.224,0.5,0.5C147.066,344.93,146.843,345.153,146.566,345.153z M124.783,345.153h-1.98
					c-0.276,0-0.5-0.224-0.5-0.5c0-0.276,0.224-0.5,0.5-0.5h1.98c0.276,0,0.5,0.224,0.5,0.5
					C125.283,344.93,125.06,345.153,124.783,345.153z M102.999,345.153h-1.98c-0.276,0-0.5-0.224-0.5-0.5c0-0.276,0.224-0.5,0.5-0.5
					h1.98c0.276,0,0.5,0.224,0.5,0.5C103.499,344.93,103.276,345.153,102.999,345.153z M81.216,345.153h-1.98
					c-0.276,0-0.5-0.224-0.5-0.5c0-0.276,0.224-0.5,0.5-0.5h1.98c0.276,0,0.5,0.224,0.5,0.5
					C81.716,344.93,81.493,345.153,81.216,345.153z M61.465,338.954c-0.156,0-0.309-0.072-0.407-0.209
					c-0.396-0.554-0.757-1.14-1.075-1.741c-0.129-0.244-0.036-0.547,0.208-0.676c0.244-0.129,0.547-0.035,0.675,0.209
					c0.297,0.563,0.635,1.109,1.004,1.626c0.161,0.225,0.108,0.537-0.116,0.698C61.667,338.924,61.565,338.954,61.465,338.954z
					 M58.723,317.747c-0.276,0-0.5-0.224-0.5-0.5v-1.98c0-0.276,0.224-0.5,0.5-0.5c0.276,0,0.5,0.224,0.5,0.5v1.98
					C59.223,317.523,58.999,317.747,58.723,317.747z M58.723,295.963c-0.276,0-0.5-0.224-0.5-0.5v-1.979c0-0.276,0.224-0.5,0.5-0.5
					c0.276,0,0.5,0.224,0.5,0.5v1.979C59.223,295.739,58.999,295.963,58.723,295.963z M58.723,274.18c-0.276,0-0.5-0.224-0.5-0.5
					v-1.98c0-0.276,0.224-0.5,0.5-0.5c0.276,0,0.5,0.224,0.5,0.5v1.98C59.223,273.956,58.999,274.18,58.723,274.18z M58.723,252.396
					c-0.276,0-0.5-0.224-0.5-0.5v-1.98c0-0.276,0.224-0.5,0.5-0.5c0.276,0,0.5,0.224,0.5,0.5v1.98
					C59.223,252.173,58.999,252.396,58.723,252.396z M63.522,231.974c-0.135,0-0.27-0.055-0.369-0.162
					c-0.187-0.204-0.173-0.52,0.031-0.706c0.501-0.459,1.039-0.889,1.597-1.278c0.226-0.158,0.538-0.102,0.696,0.124
					c0.158,0.227,0.102,0.538-0.125,0.696c-0.522,0.364-1.024,0.766-1.493,1.195C63.764,231.931,63.643,231.974,63.522,231.974z"/>
				<path style="fill:#FFFFFF;" d="M388.919,361.117c-0.276,0-0.5-0.224-0.5-0.5v-1c0-0.276,0.224-0.5,0.5-0.5
					c0.276,0,0.5,0.224,0.5,0.5v1C389.419,360.894,389.195,361.117,388.919,361.117z"/>
			</g>
		</g>
	</g>
	<g>
		<g>
			<g>
				<g>
					<defs>
						<path id="SVGID_1_" d="M249.5,285h-85V183.5c0-23.472,19.028-42.5,42.5-42.5l0,0c23.472,0,42.5,19.028,42.5,42.5V285z"/>
					</defs>
					<clipPath id="SVGID_00000018234176178017081370000015477708722802273425_">
						<use xlink:href="#SVGID_1_"  style="overflow:visible;"/>
					</clipPath>
				</g>
			</g>
		</g>
		<g>
			<g>
				<path style="fill:#3E479B;" d="M301.191,427.5h-27.588c-3.647,0-6.603-2.956-6.603-6.603V273h43v145.691
					C310,423.556,306.056,427.5,301.191,427.5z"/>
				<g>
					<path style="fill:#4C65BA;" d="M303.662,427.5H286V273h24v148.162C310,424.662,307.162,427.5,303.662,427.5z"/>
				</g>
			</g>
			<g>
				<g>
					<path style="fill:#599AF2;" d="M212.323,131h137.529c30.733,0,55.647,24.914,55.647,55.647v97.779
						c0,2.25-1.824,4.073-4.074,4.073H159.956c-0.252,0-0.456-0.204-0.456-0.456V183.824C159.5,154.65,183.15,131,212.323,131z"/>
				</g>
				<g style="opacity:0.07;">
					<path style="fill:#ECF1F7;" d="M229.323,152.5h103.949c30.733,0,55.647,24.914,55.647,55.647v76.279
						c0,2.25-1.824,4.073-4.074,4.073h-207.89c-0.252,0-0.456-0.204-0.456-0.456v-82.721C176.5,176.15,200.15,152.5,229.323,152.5z"
						/>
				</g>
				<g style="opacity:0.65;">
					<path style="fill:#4C65BA;" d="M400.912,289H249v-13h156.5v8.412C405.5,286.946,403.446,289,400.912,289z"/>
				</g>
				<g style="opacity:0.65;">
					<path style="fill:#4C65BA;" d="M400.912,289H249v-13h156.5v8.412C405.5,286.946,403.446,289,400.912,289z"/>
				</g>
				<path style="fill:#3E479B;" d="M402.029,288.5h-69.147v-12.118H405.5v8.647C405.5,286.946,403.946,288.5,402.029,288.5z"/>
				<rect x="256.5" y="187" style="opacity:0.07;fill:#373449;" width="149" height="89"/>
			</g>
			<g>
				<g>
					<path style="fill:#4C65BA;" d="M250.5,285h-85c-3.314,0-6-2.686-6-6v-96.5c0-26.786,21.714-48.5,48.5-48.5l0,0
						c26.786,0,48.5,21.714,48.5,48.5V279C256.5,282.314,253.814,285,250.5,285z"/>
				</g>
				<path style="fill:#373449;" d="M249.5,285h-85V183.5c0-23.472,19.028-42.5,42.5-42.5l0,0c23.472,0,42.5,19.028,42.5,42.5V285z"
					/>
				<g>
					<defs>
						<path id="SVGID_00000005985577577351017070000007687396982858042789_" d="M249.5,285h-85V183.5
							c0-23.472,19.028-42.5,42.5-42.5l0,0c23.472,0,42.5,19.028,42.5,42.5V285z"/>
					</defs>
					<clipPath id="SVGID_00000037693723432959073100000000480135595306566071_">
						<use xlink:href="#SVGID_00000005985577577351017070000007687396982858042789_"  style="overflow:visible;"/>
					</clipPath>
					<g style="clip-path:url(#SVGID_00000037693723432959073100000000480135595306566071_);">
						<path style="fill:#6D6CD4;" d="M252.912,272h-70.416c-2.545,0-4.608-2.063-4.608-4.608v-42.359
							c0-3.178,2.577-5.755,5.755-5.755h66.903c3.851,0,6.973,3.122,6.973,6.973v41.14C257.519,269.937,255.456,272,252.912,272z"/>
						<path style="opacity:0.56;fill:#3E479B;" d="M253.901,272h-36.197h-36.198c-1.998,0-3.618-1.62-3.618-3.618v-44.038
							c0-0.544,0.197-1.069,0.555-1.478l0,0c0.418-0.478,1.14-0.536,1.63-0.131l27.677,22.905l5.724,4.737
							c2.447,2.025,5.994,2.003,8.415-0.053l33.983-28.849c2.128,2.025,1.647,4.054,1.647,4.054v42.852
							C257.519,270.38,255.899,272,253.901,272z"/>
						<path style="fill:#6D6CD4;" d="M179.536,272.451c-0.276,0-0.55-0.113-0.747-0.335c-0.367-0.413-0.33-1.045,0.083-1.412
							l29.855-26.561c0.413-0.367,1.044-0.33,1.412,0.083s0.33,1.044-0.083,1.412L180.2,272.198
							C180.01,272.368,179.772,272.451,179.536,272.451z"/>
						<path style="fill:#6D6CD4;" d="M254.773,272.451c-0.236,0-0.473-0.083-0.663-0.252l-29.01-25.714
							c-0.414-0.367-0.452-0.999-0.085-1.412c0.366-0.413,0.998-0.451,1.412-0.085l29.009,25.715
							c0.413,0.366,0.451,0.998,0.085,1.411C255.324,272.338,255.049,272.451,254.773,272.451z"/>
					</g>
					<path style="clip-path:url(#SVGID_00000037693723432959073100000000480135595306566071_);fill:#F28393;" d="M250,285h-79
						v-4.882c0-4.483,3.634-8.118,8.118-8.118H250V285z"/>
				</g>
			</g>
			<g>
				<g>
					<path style="fill:#599AF2;" d="M247.088,303H104.235c-5.377,0-9.735-4.359-9.735-9.735V285h164v6.588
						C258.5,297.891,253.391,303,247.088,303z"/>
				</g>
				<g>
					<path style="fill:#4C65BA;" d="M247.088,303h-44.853c-5.377,0-9.735-4.359-9.735-9.735V285h66v6.588
						C258.5,297.891,253.391,303,247.088,303z"/>
				</g>
			</g>
			<g>
				<circle style="fill:#3E479B;" cx="295.5" cy="190" r="14"/>
				<path style="fill:#3E479B;" d="M295.5,194.5L295.5,194.5c-2.485,0-4.5-2.015-4.5-4.5v-89c0-2.485,2.015-4.5,4.5-4.5l0,0
					c2.485,0,4.5,2.015,4.5,4.5v89C300,192.485,297.985,194.5,295.5,194.5z"/>
				<g>
					<circle style="fill:#4C65BA;" cx="297.5" cy="190" r="12"/>
				</g>
				<polygon style="fill:#6D6CD4;" points="301.5,122.654 301.5,122.654 301.5,101 342.529,101 				"/>
				<polygon style="fill:#6D6CD4;" points="301.5,122.654 301.5,122.654 301.5,101 342.529,101 				"/>
				<g>
					<path style="fill:#4C65BA;" d="M297.5,194.5L297.5,194.5c-2.485,0-4.5-2.015-4.5-4.5v-89c0-2.485,2.015-4.5,4.5-4.5l0,0
						c2.485,0,4.5,2.015,4.5,4.5v89C302,192.485,299.985,194.5,297.5,194.5z"/>
				</g>
				<path style="fill:#3E479B;" d="M297.5,197c-3.998,0-7.25-3.252-7.25-7.25s3.252-7.25,7.25-7.25s7.25,3.252,7.25,7.25
					S301.498,197,297.5,197z M297.5,183.5c-3.446,0-6.25,2.804-6.25,6.25s2.804,6.25,6.25,6.25c3.446,0,6.25-2.804,6.25-6.25
					S300.946,183.5,297.5,183.5z"/>
			</g>
		</g>
		<g>
			<g>
				<g>
					<defs>
						<path id="SVGID_00000157307163843182662570000003407033013136959107_" d="M249.5,285h-85V183.5
							c0-23.472,19.028-42.5,42.5-42.5l0,0c23.472,0,42.5,19.028,42.5,42.5V285z"/>
					</defs>
					<clipPath id="SVGID_00000155825662467455733410000006949536552927886220_">
						<use xlink:href="#SVGID_00000157307163843182662570000003407033013136959107_"  style="overflow:visible;"/>
					</clipPath>
				</g>
			</g>
		</g>
	</g>
	<g>
		<g>
			<path style="fill:#6D6CD4;" d="M143.338,192.227H60.496c-2.545,0-4.608-2.063-4.608-4.608v-50.586
				c0-3.178,2.577-5.755,5.755-5.755h79.33c3.851,0,6.973,3.122,6.973,6.973v49.368
				C147.946,190.164,145.883,192.227,143.338,192.227z"/>
			<path style="opacity:0.59;fill:#3E479B;" d="M143.763,192.227h-41.846H60.071c-2.31,0-4.183-1.873-4.183-4.183v-50.911
				c0-0.629,0.228-1.236,0.642-1.709l0,0c0.483-0.552,1.318-0.619,1.884-0.151l31.996,26.479l6.618,5.477
				c2.829,2.341,6.929,2.315,9.728-0.061l39.286-33.35c2.46,2.341,1.905,4.687,1.905,4.687v49.54
				C147.946,190.355,146.073,192.227,143.763,192.227z"/>
			<path style="fill:#6D6CD4;" d="M58.723,191.765c-0.276,0-0.55-0.113-0.747-0.335c-0.367-0.413-0.33-1.044,0.083-1.412
				l33.584-29.878c0.413-0.368,1.044-0.33,1.412,0.083c0.367,0.413,0.33,1.044-0.082,1.412l-33.584,29.877
				C59.197,191.682,58.959,191.765,58.723,191.765z"/>
			<path style="fill:#6D6CD4;" d="M144.771,192.029c-0.232,0-0.466-0.081-0.656-0.246l-33.537-29.164
				c-0.417-0.362-0.461-0.994-0.098-1.411c0.362-0.417,0.993-0.462,1.411-0.098l33.537,29.164c0.417,0.362,0.461,0.994,0.098,1.411
				C145.329,191.913,145.051,192.029,144.771,192.029z"/>
		</g>
		<g>
			<circle style="fill:#F28393;" cx="147.456" cy="131.544" r="16.044"/>
			<g>
				<g>
					<path style="fill:#FFFFFF;" d="M143.904,137.743h-1.758v-10.618l-1.784,1.095v-1.819l1.784-1.189h1.758V137.743z"/>
					<path style="fill:#FFFFFF;" d="M147.658,136.933c-0.606-0.627-0.909-1.5-0.909-2.62v-5.697c0-1.126,0.304-2.001,0.914-2.624
						c0.609-0.623,1.497-0.935,2.663-0.935c1.172,0,2.061,0.31,2.667,0.931c0.606,0.621,0.909,1.497,0.909,2.629v5.697
						c0,1.126-0.305,2.001-0.914,2.624s-1.497,0.935-2.663,0.935C149.153,137.873,148.264,137.56,147.658,136.933z M151.7,135.713
						c0.296-0.324,0.444-0.791,0.444-1.4v-5.697c0-0.609-0.146-1.076-0.44-1.401c-0.293-0.324-0.753-0.487-1.379-0.487
						c-0.626,0-1.086,0.163-1.379,0.487c-0.293,0.325-0.44,0.792-0.44,1.401v5.697c0,0.609,0.148,1.076,0.444,1.4
						c0.296,0.325,0.754,0.487,1.375,0.487S151.404,136.038,151.7,135.713z"/>
				</g>
			</g>
		</g>
		<g>
			<path style="fill:#F7A9B4;" d="M205.72,248.431H98.527c-3.114,0-5.639-2.525-5.639-5.639v-66.156
				c0-3.511,2.846-6.357,6.358-6.357h104.109c4.184,0,7.576,3.392,7.576,7.576v65.366
				C210.931,246.098,208.598,248.431,205.72,248.431z"/>
			<path style="fill:#F28393;" d="M205.568,248.431H151.91H98.251c-2.962,0-5.363-2.401-5.363-5.363v-65.281
				c0-0.806,0.293-1.585,0.824-2.191l0,0c0.62-0.708,1.69-0.794,2.415-0.194l41.027,33.953l8.486,7.023
				c3.627,3.002,8.885,2.969,12.474-0.078l50.375-42.764c3.155,3.001,2.442,6.01,2.442,6.01v63.523
				C210.931,246.03,208.53,248.431,205.568,248.431z"/>
			<path style="fill:#F7A9B4;" d="M95.996,247.952c-0.276,0-0.551-0.113-0.748-0.336c-0.367-0.413-0.33-1.045,0.083-1.412
				l43.591-38.707c0.413-0.367,1.046-0.33,1.412,0.083c0.367,0.413,0.33,1.045-0.084,1.412L96.66,247.7
				C96.469,247.869,96.232,247.952,95.996,247.952z"/>
			<path style="fill:#F7A9B4;" d="M206.999,248.042c-0.233,0-0.467-0.081-0.656-0.246l-43.143-37.544
				c-0.417-0.363-0.46-0.994-0.098-1.411c0.362-0.417,0.994-0.461,1.411-0.098l43.143,37.544c0.417,0.363,0.46,0.994,0.098,1.411
				C207.557,247.926,207.279,248.042,206.999,248.042z"/>
		</g>
	</g>
	<g>
		<circle style="fill:#3E479B;" cx="414.958" cy="160.314" r="21.99"/>
		
			<ellipse transform="matrix(0.211 -0.9775 0.9775 0.211 177.3152 478.2978)" style="fill:#F28393;" cx="384.928" cy="129.315" rx="35.874" ry="35.874"/>
		<g>
			<g>
				<g>
					<path style="fill:#FFFFFF;" d="M384.928,153.135c-4.039,0-7.435-3.024-7.901-7.034l-0.065-0.558h15.932l-0.064,0.558
						C392.364,150.111,388.968,153.135,384.928,153.135z M378.107,146.544c0.641,3.225,3.479,5.591,6.82,5.591
						c3.342,0,6.181-2.367,6.82-5.591H378.107z"/>
					<path style="fill:#FFFFFF;" d="M399.651,138.217h-29.447v-13.461c0-7.779,6.328-14.107,14.106-14.107h1.234
						c7.778,0,14.107,6.328,14.107,14.107V138.217z M371.204,137.217h27.447v-12.461c0-7.227-5.88-13.107-13.107-13.107h-1.234
						c-7.226,0-13.106,5.88-13.106,13.107V137.217z"/>
					<path style="fill:#FFFFFF;" d="M399.159,146.544h-28.462c-2.472,0-4.483-2.011-4.483-4.482V141.7
						c0-2.472,2.011-4.482,4.483-4.482h28.462c2.472,0,4.482,2.011,4.482,4.482v0.361
						C403.642,144.533,401.631,146.544,399.159,146.544z M370.704,138.217c-1.927,0-3.489,1.562-3.489,3.482v0.361
						c0,1.92,1.563,3.482,3.483,3.482h28.462c1.92,0,3.482-1.562,3.482-3.482V141.7c0-1.92-1.563-3.482-3.482-3.482H370.704z"/>
				</g>
				<path style="fill:#FFFFFF;" d="M381.911,133.954h-11.207c-0.276,0-0.5-0.224-0.5-0.5s0.224-0.5,0.5-0.5h11.207
					c0.276,0,0.5,0.224,0.5,0.5S382.188,133.954,381.911,133.954z"/>
			</g>
			<path style="fill:#FFFFFF;" d="M383.59,133.95c-0.13,0-0.26-0.05-0.36-0.14c-0.04-0.05-0.08-0.1-0.1-0.16
				c-0.03-0.07-0.04-0.13-0.04-0.19c0-0.07,0.01-0.14,0.04-0.2c0.02-0.06,0.06-0.11,0.1-0.16c0.051-0.039,0.11-0.08,0.17-0.11
				c0.181-0.07,0.4-0.03,0.54,0.11c0.051,0.05,0.091,0.1,0.11,0.16c0.03,0.06,0.04,0.13,0.04,0.2c0,0.06-0.01,0.12-0.04,0.19
				c-0.02,0.06-0.06,0.11-0.11,0.16c-0.04,0.039-0.1,0.079-0.159,0.11C383.72,133.94,383.649,133.95,383.59,133.95z"/>
		</g>
		<g>
			<path style="fill:#FFFFFF;" d="M385.088,107.93c-0.276,0-0.5-0.224-0.5-0.5v-7.343c0-0.276,0.224-0.5,0.5-0.5s0.5,0.224,0.5,0.5
				v7.343C385.588,107.706,385.364,107.93,385.088,107.93z"/>
			<path style="fill:#FFFFFF;" d="M394.855,110.053c-0.097,0-0.194-0.028-0.281-0.086c-0.229-0.155-0.287-0.466-0.133-0.694
				l2.062-3.037c0.155-0.229,0.464-0.289,0.695-0.133c0.229,0.155,0.287,0.466,0.133,0.694l-2.062,3.037
				C395.173,109.976,395.015,110.053,394.855,110.053z"/>
			<path style="fill:#FFFFFF;" d="M375.001,110.053c-0.159,0-0.317-0.077-0.414-0.219l-2.063-3.037
				c-0.154-0.229-0.096-0.539,0.133-0.694c0.227-0.156,0.54-0.097,0.695,0.133l2.063,3.037c0.154,0.229,0.096,0.539-0.133,0.694
				C375.196,110.025,375.098,110.053,375.001,110.053z"/>
		</g>
	</g>
</g>
<g id="DESIGNED_BY_FREEPIK">
	<g>
		<g>
			<g id="XMLID_197_">
				<g id="XMLID_216_">
					<path id="XMLID_224_" d="M260.064,463.607c-0.431,0.441-0.8,0.927-1.104,1.447l-0.463-0.24c-0.067-0.296-0.348-0.5-0.656-0.464
						c-0.33,0.039-0.565,0.337-0.527,0.667c0.039,0.33,0.337,0.565,0.667,0.527c0.065-0.008,0.126-0.026,0.183-0.052l0.45,0.233
						c-0.25,0.552-0.431,1.134-0.537,1.737l0.743,0.131c0.229-1.301,0.846-2.497,1.785-3.459L260.064,463.607z"/>
					<path id="XMLID_223_" d="M265.529,461.314c-0.17,0-0.339,0.006-0.508,0.017l-0.073-0.624c0.187-0.149,0.295-0.388,0.265-0.642
						c-0.046-0.392-0.401-0.672-0.792-0.625c-0.392,0.046-0.672,0.401-0.626,0.792c0.03,0.253,0.189,0.459,0.403,0.561l0.073,0.622
						c-0.711,0.116-1.397,0.331-2.052,0.643l0.326,0.681c0.93-0.445,1.934-0.671,2.983-0.671c0.495,0,0.989,0.053,1.469,0.157
						l0.16-0.738C266.626,461.373,266.078,461.314,265.529,461.314z"/>
					<path id="XMLID_222_" d="M272.106,463.852c0.329-0.04,0.564-0.34,0.523-0.67c-0.04-0.329-0.34-0.564-0.67-0.523
						c-0.308,0.038-0.533,0.303-0.528,0.606l-0.414,0.362c-0.416-0.428-0.886-0.81-1.402-1.135l-0.402,0.639
						c1.13,0.712,2.013,1.719,2.553,2.914l0.688-0.311c-0.25-0.552-0.565-1.068-0.938-1.539l0.4-0.349
						C271.977,463.856,272.04,463.859,272.106,463.852z"/>
					<path id="XMLID_221_" d="M264.984,471.482c-0.384,0.023-0.772,0.035-1.152,0.035c-0.877,0-1.726-0.06-2.469-0.178
						c-0.389-0.062-0.843-0.154-1.265-0.291c1.042,1.854,3.057,3.113,5.367,3.113c2.844,0,5.241-1.909,5.926-4.486
						c-0.679,0.448-1.499,0.822-2.449,1.118C267.767,471.159,266.398,471.397,264.984,471.482z"/>
					<path id="XMLID_217_" d="M265.529,462.824c-3.339,0-6.055,2.656-6.055,5.92c0,0.424,0.046,0.846,0.137,1.256
						c0.671,0.481,2.695,0.886,5.326,0.728c2.868-0.173,5.276-0.954,6.646-2.15c-0.005-0.194-0.021-0.388-0.045-0.579
						C271.159,465.049,268.576,462.824,265.529,462.824z M263.379,469.313c-1.016,0-1.842-0.826-1.842-1.842
						s0.827-1.842,1.842-1.842c1.016,0,1.842,0.827,1.842,1.842S264.395,469.313,263.379,469.313z M268.097,468.409
						c-0.747,0-1.355-0.608-1.355-1.355s0.608-1.355,1.355-1.355c0.747,0,1.355,0.608,1.355,1.355S268.844,468.409,268.097,468.409z
						"/>
				</g>
				<path id="XMLID_214_" d="M281.469,464.684c-0.294-0.116-0.802-0.308-1.377-0.236c-0.549,0.068-0.84,0.339-0.84,1.003v0.862
					h2.219v1.71h-2.219v5.433h-1.924v-5.433h-1.334v-1.71h1.334v-0.885c0-1.673,0.892-2.772,2.558-2.772
					c0.64,0,1.152,0.121,1.584,0.307L281.469,464.684z"/>
				<path id="XMLID_212_" d="M286.153,468.003c-0.176-0.03-0.356-0.046-0.524-0.046c-0.892,0-1.504,0.546-1.504,1.607v3.892h-1.924
					v-7.143h1.865v0.781c0.45-0.671,1.135-0.973,2.012-0.973c0.413,0,0.844,0.127,1.09,0.335L286.153,468.003z"/>
				<path id="XMLID_209_" d="M293.79,469.874c0,0.221-0.015,0.487-0.037,0.649h-5.064c0.206,1.032,0.929,1.482,1.836,1.482
					c0.619,0,1.29-0.251,1.806-0.685l1.128,1.238c-0.811,0.745-1.843,1.084-3.044,1.084c-2.19,0-3.708-1.489-3.708-3.737
					c0-2.249,1.474-3.782,3.612-3.782C292.374,466.121,293.782,467.647,293.79,469.874z M288.696,469.21h3.162
					c-0.177-0.914-0.73-1.43-1.555-1.43C289.396,467.78,288.865,468.326,288.696,469.21z"/>
				<path id="XMLID_206_" d="M301.412,469.874c0,0.221-0.015,0.487-0.037,0.649h-5.064c0.206,1.032,0.929,1.482,1.835,1.482
					c0.619,0,1.29-0.251,1.806-0.685l1.128,1.238c-0.811,0.745-1.843,1.084-3.045,1.084c-2.19,0-3.708-1.489-3.708-3.737
					c0-2.249,1.475-3.782,3.612-3.782C299.997,466.121,301.405,467.647,301.412,469.874z M296.318,469.21h3.163
					c-0.177-0.914-0.73-1.43-1.556-1.43C297.019,467.78,296.488,468.326,296.318,469.21z"/>
				<path id="XMLID_203_" d="M309.725,469.881c0,2.145-1.489,3.76-3.457,3.76c-0.958,0-1.637-0.376-2.101-0.929v3.693h-1.917
					v-10.092h1.88v0.789c0.464-0.582,1.15-0.98,2.131-0.98C308.236,466.121,309.725,467.736,309.725,469.881z M304.07,469.881
					c0,1.128,0.744,1.968,1.835,1.968c1.135,0,1.843-0.877,1.843-1.968c0-1.091-0.708-1.968-1.843-1.968
					C304.815,467.913,304.07,468.753,304.07,469.881z"/>
				<path id="XMLID_200_" d="M312.816,463.976c0,0.693-0.538,1.224-1.231,1.224c-0.693,0-1.224-0.531-1.224-1.224
					c0-0.693,0.531-1.238,1.224-1.238C312.277,462.738,312.816,463.283,312.816,463.976z M312.558,473.456h-1.924v-7.143h1.924
					V473.456z"/>
				<path id="XMLID_198_" d="M315.768,468.856l2.691-2.543h2.359l-3.465,3.362l3.487,3.782h-2.367l-2.705-2.89v2.89h-1.924v-10.616
					h1.924V468.856z"/>
			</g>
			<g>
				<path d="M184.674,473.392v-1.051c-0.525,0.715-1.386,1.226-2.378,1.226c-1.838,0-3.137-1.4-3.137-3.691
					c0-2.247,1.284-3.706,3.137-3.706c0.948,0,1.809,0.467,2.378,1.24v-3.75h1.094v9.731H184.674z M184.674,471.48v-3.195
					c-0.394-0.613-1.24-1.138-2.116-1.138c-1.415,0-2.261,1.167-2.261,2.728c0,1.561,0.846,2.714,2.261,2.714
					C183.434,472.589,184.28,472.093,184.674,471.48z"/>
				<path d="M187.184,469.861c0-2.043,1.459-3.691,3.472-3.691c2.13,0,3.385,1.663,3.385,3.779v0.277h-5.704
					c0.088,1.328,1.021,2.436,2.539,2.436c0.802,0,1.619-0.321,2.174-0.89l0.525,0.715c-0.7,0.7-1.648,1.079-2.801,1.079
					C188.686,473.567,187.184,472.064,187.184,469.861z M190.641,467.075c-1.503,0-2.247,1.269-2.305,2.349h4.625
					C192.946,468.373,192.246,467.075,190.641,467.075z"/>
				<path d="M194.828,472.458l0.569-0.788c0.467,0.54,1.357,1.007,2.32,1.007c1.08,0,1.663-0.511,1.663-1.211
					c0-1.707-4.362-0.656-4.362-3.268c0-1.094,0.948-2.028,2.626-2.028c1.197,0,2.043,0.452,2.612,1.021l-0.511,0.759
					c-0.423-0.511-1.196-0.89-2.101-0.89c-0.963,0-1.561,0.482-1.561,1.109c0,1.546,4.362,0.525,4.362,3.268
					c0,1.182-0.948,2.13-2.772,2.13C196.52,473.567,195.543,473.216,194.828,472.458z"/>
				<path d="M201.671,464.609c0-0.408,0.336-0.744,0.729-0.744c0.408,0,0.744,0.336,0.744,0.744c0,0.409-0.336,0.729-0.744,0.729
					C202.006,465.338,201.671,465.017,201.671,464.609z M201.86,473.392v-7.047h1.094v7.047H201.86z"/>
				<path d="M204.763,475.201l0.554-0.817c0.583,0.7,1.284,0.963,2.291,0.963c1.167,0,2.261-0.569,2.261-2.116v-1.007
					c-0.51,0.715-1.371,1.255-2.364,1.255c-1.838,0-3.137-1.371-3.137-3.647c0-2.261,1.284-3.662,3.137-3.662
					c0.948,0,1.795,0.467,2.364,1.24v-1.065h1.094v6.842c0,2.334-1.634,3.064-3.355,3.064
					C206.412,476.251,205.595,476.018,204.763,475.201z M209.869,471.364v-3.078c-0.379-0.613-1.226-1.138-2.101-1.138
					c-1.415,0-2.261,1.124-2.261,2.684c0,1.547,0.846,2.685,2.261,2.685C208.644,472.516,209.49,471.977,209.869,471.364z"/>
				<path d="M217.543,473.392v-4.61c0-1.24-0.627-1.634-1.576-1.634c-0.861,0-1.678,0.525-2.086,1.094v5.15h-1.094v-7.047h1.094
					v1.021c0.496-0.583,1.459-1.196,2.509-1.196c1.474,0,2.247,0.744,2.247,2.276v4.946H217.543z"/>
				<path d="M220.052,469.861c0-2.043,1.459-3.691,3.472-3.691c2.13,0,3.385,1.663,3.385,3.779v0.277h-5.704
					c0.087,1.328,1.021,2.436,2.538,2.436c0.802,0,1.619-0.321,2.174-0.89l0.525,0.715c-0.7,0.7-1.649,1.079-2.801,1.079
					C221.555,473.567,220.052,472.064,220.052,469.861z M223.51,467.075c-1.503,0-2.247,1.269-2.305,2.349h4.625
					C225.815,468.373,225.115,467.075,223.51,467.075z"/>
				<path d="M233.416,473.392v-1.051c-0.525,0.715-1.386,1.226-2.378,1.226c-1.838,0-3.137-1.4-3.137-3.691
					c0-2.247,1.284-3.706,3.137-3.706c0.948,0,1.81,0.467,2.378,1.24v-3.75h1.094v9.731H233.416z M233.416,471.48v-3.195
					c-0.394-0.613-1.24-1.138-2.116-1.138c-1.415,0-2.261,1.167-2.261,2.728c0,1.561,0.846,2.714,2.261,2.714
					C232.176,472.589,233.022,472.093,233.416,471.48z"/>
				<path d="M239.733,473.392v-9.731h1.094v3.75c0.569-0.773,1.415-1.24,2.378-1.24c1.838,0,3.137,1.459,3.137,3.706
					c0,2.29-1.299,3.691-3.137,3.691c-0.992,0-1.853-0.51-2.378-1.226v1.051H239.733z M242.928,472.589
					c1.43,0,2.276-1.152,2.276-2.714c0-1.561-0.846-2.728-2.276-2.728c-0.861,0-1.721,0.525-2.101,1.138v3.195
					C241.207,472.093,242.067,472.589,242.928,472.589z"/>
				<path d="M247.538,475.157c0.16,0.073,0.423,0.117,0.598,0.117c0.481,0,0.802-0.161,1.05-0.744l0.467-1.065l-2.947-7.12h1.182
					l2.349,5.777l2.334-5.777h1.196l-3.531,8.477c-0.423,1.021-1.138,1.415-2.072,1.43c-0.233,0-0.598-0.044-0.802-0.102
					L247.538,475.157z"/>
			</g>
		</g>
	</g>
</g>
</svg>
